<?xml version="1.0" standalone="no"?>
<!DOCTYPE svg PUBLIC "-//W3C//DTD SVG 20010904//EN"
 "http://www.w3.org/TR/2001/REC-SVG-20010904/DTD/svg10.dtd">
<svg version="1.0" xmlns="http://www.w3.org/2000/svg"
 width="145.000000pt" height="145.000000pt" viewBox="0 0 145.000000 145.000000"
 preserveAspectRatio="xMidYMid meet">
<metadata>
Created by potrace 1.14, written by Peter Selinger 2001-2017
</metadata>
<g transform="translate(0.000000,145.000000) scale(0.100000,-0.100000)"
fill="#000000" stroke="none">
<path d="M575 1435 c-259 -54 -471 -254 -551 -520 -28 -93 -26 -287 5 -385 52
-167 145 -297 279 -391 68 -48 182 -98 262 -115 408 -85 799 185 864 596 19
117 32 109 -173 109 l-178 0 -6 -50 c-14 -115 -97 -226 -205 -277 -49 -23 -70
-27 -152 -27 -83 0 -102 3 -150 27 -59 29 -141 104 -165 151 -50 98 -55 226
-13 319 51 111 166 199 279 214 39 5 49 11 49 25 1 11 1 66 1 124 0 58 0 130
-1 160 l0 55 -42 -1 c-24 -1 -70 -8 -103 -14z"/>
<path d="M650 940 c-239 -81 -180 -436 72 -434 168 2 274 174 199 322 -53 105
-161 149 -271 112z"/>
</g>
</svg>
